<?xml version="1.0" standalone="no"?>
<!DOCTYPE svg PUBLIC "-//W3C//DTD SVG 20010904//EN"
 "http://www.w3.org/TR/2001/REC-SVG-20010904/DTD/svg10.dtd">
<svg version="1.0" xmlns="http://www.w3.org/2000/svg"
 width="512.000000pt" height="512.000000pt" viewBox="0 0 512.000000 512.000000"
 preserveAspectRatio="xMidYMid meet">
<metadata>
Created by potrace 1.14, written by Peter Selinger 2001-2017
</metadata>
<g transform="translate(0.000000,512.000000) scale(0.100000,-0.100000)"
fill="#000000" stroke="none">
<path d="M2335 5110 c-11 -5 -38 -9 -61 -9 -62 -1 -212 -29 -359 -67 -453
-117 -861 -355 -1191 -695 -374 -387 -620 -883 -694 -1404 -6 -44 -16 -96 -21
-115 -11 -36 -7 -451 5 -525 4 -22 11 -74 17 -115 27 -191 85 -400 169 -605
l40 -99 -33 -56 c-67 -110 -133 -271 -180 -440 -19 -70 -21 -106 -24 -509 l-3
-433 332 4 c387 5 429 11 698 90 19 6 51 17 70 25 19 8 55 21 80 30 25 8 77
33 117 54 39 21 78 39 86 39 8 0 48 -15 89 -34 153 -72 284 -119 443 -160 244
-63 380 -80 645 -80 190 0 281 7 410 29 555 95 1040 349 1426 746 395 408 623
887 706 1484 15 103 15 487 0 590 -35 250 -82 437 -166 651 l-35 91 25 69 c67
184 87 242 94 279 4 22 19 83 33 135 58 218 61 247 64 658 l3 382 -559 0
c-308 0 -570 -4 -583 -9 -13 -5 -57 -17 -98 -27 -41 -9 -111 -30 -155 -46 -44
-16 -119 -42 -166 -58 l-87 -29 -83 29 c-137 46 -319 91 -449 109 -41 6 -93
13 -115 17 -66 10 -468 14 -490 4z m1663 -1012 c266 -266 492 -494 502 -508
l18 -26 -59 -117 c-105 -206 -270 -449 -418 -614 -52 -58 -433 -446 -1313
-1335 -260 -263 -480 -478 -488 -478 -19 0 -1290 1270 -1290 1290 0 20 893
913 950 950 25 16 171 159 325 316 551 565 768 745 1134 941 64 34 125 62 136
62 13 1 182 -161 503 -481z m-2898 -2934 l195 -195 -53 -49 c-88 -82 -242
-159 -377 -188 -27 -7 -71 -16 -97 -22 -49 -10 -131 -14 -140 -5 -5 5 5 76 24
175 29 156 98 310 185 414 30 37 58 66 61 66 4 0 95 -88 202 -196z"/>
<path d="M3160 3743 c-122 -19 -208 -59 -281 -134 -95 -96 -140 -202 -141
-331 0 -134 43 -240 137 -333 99 -100 195 -138 340 -137 201 2 362 116 435
307 31 81 32 235 2 313 -48 124 -132 217 -245 271 -51 24 -183 55 -214 50 -4
-1 -19 -3 -33 -6z m134 -155 c117 -34 210 -138 235 -264 29 -146 -77 -315
-227 -360 -268 -81 -509 194 -390 446 40 85 87 129 175 166 65 26 142 31 207
12z"/>
<path d="M2435 2601 c-16 -10 -211 -201 -432 -423 -384 -384 -403 -405 -403
-440 0 -43 27 -68 75 -68 26 0 82 53 452 423 459 458 452 449 398 502 -29 30
-50 31 -90 6z"/>
</g>
</svg>
